<svg id="Search" xmlns="http://www.w3.org/2000/svg" width="23.247" height="23.247" viewBox="0 0 23.247 23.247">
  <path id="Path_2" data-name="Path 2" d="M2.906,10.171a7.194,7.194,0,0,1,7.265-7.265,7.194,7.194,0,0,1,7.265,7.265,7.194,7.194,0,0,1-7.265,7.265A7.194,7.194,0,0,1,2.906,10.171ZM20.777,22.811a1.438,1.438,0,0,0,2.034-2.034l-4.5-4.5a9.948,9.948,0,0,0,2.034-6.1A10.108,10.108,0,0,0,10.171,0,10.108,10.108,0,0,0,0,10.171,10.108,10.108,0,0,0,10.171,20.341a9.948,9.948,0,0,0,6.1-2.034Z" fill="#fcbf49"/>
</svg>
